<svg xmlns="http://www.w3.org/2000/svg" width="300" height="360" viewBox="0 0 300 360">
  <rect width="300" height="360" fill="none"/>
  <g stroke="#8A5A3B" stroke-width="3" stroke-linecap="round" opacity="0.85">
    <line x1="150" y1="24" x2="150" y2="320" stroke-dasharray="10 9" opacity="0.48"/>
    <line x1="36" y1="118" x2="264" y2="118" stroke-dasharray="10 9" opacity="0.48"/>
    <path d="M48 105 C70 88, 110 88, 134 106" fill="none"/>
    <path d="M48 124 C74 113, 107 113, 134 126" fill="none" opacity="0.78"/>
    <path d="M166 106 C190 88, 230 88, 252 105" fill="none"/>
    <path d="M166 126 C193 113, 226 113, 252 124" fill="none" opacity="0.78"/>
  </g>
  <g fill="#8A5A3B">
    <circle cx="50" cy="116" r="5"/>
    <circle cx="94" cy="96" r="5"/>
    <circle cx="134" cy="116" r="5"/>
    <circle cx="166" cy="116" r="5"/>
    <circle cx="206" cy="96" r="5"/>
    <circle cx="250" cy="116" r="5"/>
  </g>
  <g>
    <rect x="96" y="8" width="108" height="26" rx="13" fill="#8A5A3B" opacity="0.92"/>
    <text x="150" y="26" text-anchor="middle" font-size="13" fill="#FFF8F0" font-family="Arial, sans-serif">CoverImage</text>
  </g>
</svg>
